<?xml version="1.0" encoding="UTF-8"?>
<!DOCTYPE svg PUBLIC "-//W3C//DTD SVG 1.1//EN" "http://www.w3.org/Graphics/SVG/1.1/DTD/svg11.dtd">
<svg xmlns="http://www.w3.org/2000/svg" version="1.1" width="2560px" height="1440px" style="shape-rendering:geometricPrecision; text-rendering:geometricPrecision; image-rendering:optimizeQuality; fill-rule:evenodd; clip-rule:evenodd" xmlns:xlink="http://www.w3.org/1999/xlink">
<g><path style="opacity:1" fill="#c8c8c8" d="M 465.5,521.5 C 503.664,520.336 541.998,520.169 580.5,521C 582.041,522.371 583.375,523.871 584.5,525.5C 582.589,524.925 580.922,523.925 579.5,522.5C 541.67,521.501 503.67,521.168 465.5,521.5 Z"/></g>
<g><path style="opacity:1" fill="#dcdcdc" d="M 798.5,521.5 C 804.987,520.346 811.654,520.179 818.5,521C 819.598,521.77 819.598,522.603 818.5,523.5C 812.118,521.601 805.451,520.934 798.5,521.5 Z"/></g>
<g><path style="opacity:1" fill="#020202" d="M 579.5,522.5 C 580.922,523.925 582.589,524.925 584.5,525.5C 584.525,528.179 585.858,529.512 588.5,529.5C 588.525,532.179 589.858,533.512 592.5,533.5C 596.159,536.789 599.826,540.122 603.5,543.5C 603.062,543.435 602.728,543.601 602.5,544C 605.101,547.112 608.101,549.612 611.5,551.5C 614.167,553.833 616.833,556.167 619.5,558.5C 620.757,561.427 622.757,563.761 625.5,565.5C 626.833,566.5 628.167,567.5 629.5,568.5C 630.693,571.938 633.026,574.271 636.5,575.5C 639.788,578.449 643.121,581.449 646.5,584.5C 647.833,587.833 650.167,590.167 653.5,591.5C 655.167,592.5 656.5,593.833 657.5,595.5C 657.539,596.583 657.873,597.583 658.5,598.5C 661.039,599.931 663.372,601.597 665.5,603.5C 667.833,605.5 670.167,607.5 672.5,609.5C 673.833,612.833 676.167,615.167 679.5,616.5C 680.219,618.764 680.552,621.097 680.5,623.5C 680.81,626.713 680.477,629.713 679.5,632.5C 676.762,642.723 675.762,653.057 676.5,663.5C 676.5,664.167 676.167,664.5 675.5,664.5C 673.946,668.567 673.28,672.9 673.5,677.5C 673.5,677.833 673.5,678.167 673.5,678.5C 672.419,681.627 671.753,684.96 671.5,688.5C 670.564,689.974 669.23,690.974 667.5,691.5C 664.656,691.343 662.989,692.676 662.5,695.5C 660.381,695.468 659.048,696.468 658.5,698.5C 657.5,698.5 656.5,698.5 655.5,698.5C 655.5,699.5 655.5,700.5 655.5,701.5C 654.078,702.925 652.411,703.925 650.5,704.5C 648.027,704.088 646.694,705.088 646.5,707.5C 645.421,709.543 643.754,710.876 641.5,711.5C 639.973,711.427 638.973,712.094 638.5,713.5C 638.5,714.167 638.167,714.5 637.5,714.5C 635.005,714.969 632.339,714.969 629.5,714.5C 627.044,712.132 624.044,711.132 620.5,711.5C 620.167,711.5 619.833,711.5 619.5,711.5C 618.374,710.142 618.374,708.808 619.5,707.5C 622.804,705.86 625.471,703.527 627.5,700.5C 636.019,695.661 644.019,689.994 651.5,683.5C 651.141,679.244 648.474,677.244 643.5,677.5C 643.027,676.094 642.027,675.427 640.5,675.5C 639.525,673.807 638.192,672.307 636.5,671C 633.717,670.037 631.05,668.87 628.5,667.5C 625.762,668.728 623.429,670.562 621.5,673C 621.728,673.399 622.062,673.565 622.5,673.5C 622.158,674.338 621.492,674.672 620.5,674.5C 618.821,674.285 617.821,674.952 617.5,676.5C 615.027,676.088 613.694,677.088 613.5,679.5C 609.668,680.655 606.668,682.988 604.5,686.5C 602.45,688.547 600.117,690.214 597.5,691.5C 593.668,692.655 590.668,694.988 588.5,698.5C 586.381,698.468 585.048,699.468 584.5,701.5C 583.421,703.543 581.754,704.876 579.5,705.5C 577.821,705.285 576.821,705.952 576.5,707.5C 574.027,707.088 572.694,708.088 572.5,710.5C 570.952,710.821 570.285,711.821 570.5,713.5C 576.122,714.814 581.788,715.814 587.5,716.5C 587.833,716.5 588.167,716.5 588.5,716.5C 588.47,717.497 588.97,718.164 590,718.5C 596,720.891 602.167,722.557 608.5,723.5C 610.216,723.629 611.883,723.962 613.5,724.5C 614.287,726.104 615.62,726.771 617.5,726.5C 617.5,727.833 617.5,729.167 617.5,730.5C 615.343,732.412 613.009,734.079 610.5,735.5C 606.936,736.32 604.269,738.32 602.5,741.5C 602.027,742.906 601.027,743.573 599.5,743.5C 598.5,743.5 597.5,743.5 596.5,743.5C 596.5,744.5 596.5,745.5 596.5,746.5C 595.833,746.833 595.167,747.167 594.5,747.5C 592.381,747.468 591.048,748.468 590.5,750.5C 590.5,751.167 590.167,751.5 589.5,751.5C 587.973,751.427 586.973,752.094 586.5,753.5C 585.761,753.369 585.094,753.536 584.5,754C 583.262,754.69 583.262,755.19 584.5,755.5C 580.538,758.488 576.538,761.488 572.5,764.5C 569.476,766.31 566.142,767.477 562.5,768C 563.252,768.671 563.586,769.504 563.5,770.5C 560.792,773.209 557.792,775.542 554.5,777.5C 552.596,777.738 551.262,778.738 550.5,780.5C 544.229,785.975 537.563,790.975 530.5,795.5C 528.973,795.427 527.973,796.094 527.5,797.5C 526.421,799.543 524.754,800.876 522.5,801.5C 521.168,810.809 520.501,820.476 520.5,830.5C 520.667,840.167 520.833,849.833 521,859.5C 530.509,862.337 540.176,864.67 550,866.5C 551.301,866.361 552.134,865.695 552.5,864.5C 553.167,864.833 553.833,865.167 554.5,865.5C 554.881,866.931 555.881,867.764 557.5,868C 564.389,870.047 571.389,871.047 578.5,871C 588.862,866.287 598.862,861.12 608.5,855.5C 609.5,855.167 610.167,854.5 610.5,853.5C 611.514,852.326 612.847,851.66 614.5,851.5C 622.106,849.863 629.106,846.863 635.5,842.5C 636.666,826.51 636.833,810.51 636,794.5C 632.891,791.218 629.724,788.218 626.5,785.5C 624.478,779.797 620.811,775.464 615.5,772.5C 615.649,771.448 615.483,770.448 615,769.5C 611.833,765.833 608.667,762.167 605.5,758.5C 606.193,757.482 606.859,756.482 607.5,755.5C 612.88,753.145 617.546,749.812 621.5,745.5C 623.55,743.453 625.883,741.786 628.5,740.5C 633.21,737.39 638.043,734.39 643,731.5C 646.321,733.988 649.488,736.655 652.5,739.5C 655.719,745.391 660.052,750.391 665.5,754.5C 667.167,755.5 668.5,756.833 669.5,758.5C 670.419,761.089 672.086,763.089 674.5,764.5C 675.419,767.089 677.086,769.089 679.5,770.5C 680.833,803.833 680.833,837.167 679.5,870.5C 674.558,872.304 669.891,874.638 665.5,877.5C 661.818,880.008 657.818,882.008 653.5,883.5C 648.167,885.833 642.833,888.167 637.5,890.5C 633.465,891.51 630.132,893.51 627.5,896.5C 621.35,898.74 615.684,901.74 610.5,905.5C 608.95,906.441 607.284,907.107 605.5,907.5C 603.833,907.5 602.167,907.5 600.5,907.5C 600.5,908.5 600.5,909.5 600.5,910.5C 600.167,910.5 599.833,910.5 599.5,910.5C 595.466,912.175 591.466,913.842 587.5,915.5C 585.516,915.383 583.85,916.05 582.5,917.5C 577.88,918.493 573.214,918.827 568.5,918.5C 566.585,918.784 564.919,918.451 563.5,917.5C 560.781,916.087 557.781,915.42 554.5,915.5C 552.162,913.96 549.495,913.294 546.5,913.5C 544.901,913.768 543.568,913.434 542.5,912.5C 540.162,910.96 537.495,910.294 534.5,910.5C 532.095,909.232 529.428,908.565 526.5,908.5C 524.708,908.634 523.042,908.301 521.5,907.5C 519.562,905.837 517.228,905.171 514.5,905.5C 512.585,905.784 510.919,905.451 509.5,904.5C 505.453,902.74 501.12,901.74 496.5,901.5C 494.162,899.96 491.495,899.294 488.5,899.5C 484.8,897.719 480.8,896.719 476.5,896.5C 474.901,896.768 473.568,896.434 472.5,895.5C 470.485,894.076 468.152,893.41 465.5,893.5C 465.333,852.832 465.5,812.165 466,771.5C 467.707,769.963 469.207,768.296 470.5,766.5C 473.533,764.984 476.2,762.984 478.5,760.5C 481.891,759.471 484.557,757.471 486.5,754.5C 488.749,753.92 490.415,752.587 491.5,750.5C 497.348,747.985 502.348,744.318 506.5,739.5C 510.051,737.889 513.051,735.556 515.5,732.5C 520.224,730.471 524.224,727.471 527.5,723.5C 538.891,716.471 549.558,708.471 559.5,699.5C 563.933,696.916 568.266,694.082 572.5,691C 573.252,690.329 573.586,689.496 573.5,688.5C 573.5,687.833 573.833,687.5 574.5,687.5C 574.897,688.525 575.563,688.692 576.5,688C 587.266,680.296 597.6,672.129 607.5,663.5C 612.049,661.131 616.215,658.131 620,654.5C 621.439,649.238 621.772,643.904 621,638.5C 617.964,635.296 614.797,632.296 611.5,629.5C 607.724,625.057 603.724,621.057 599.5,617.5C 591.648,610.148 583.982,602.648 576.5,595C 575.552,594.517 574.552,594.351 573.5,594.5C 572.25,592.068 570.75,589.734 569,587.5C 563.146,582.644 557.646,577.477 552.5,572C 541.829,571.623 531.162,571.79 520.5,572.5C 521.145,619.65 520.479,666.65 518.5,713.5C 518.5,714.167 518.167,714.5 517.5,714.5C 515.973,714.427 514.973,715.094 514.5,716.5C 514.5,717.167 514.167,717.5 513.5,717.5C 511.821,717.285 510.821,717.952 510.5,719.5C 510.5,720.167 510.167,720.5 509.5,720.5C 508.448,720.351 507.448,720.517 506.5,721C 503.468,723.84 500.468,726.674 497.5,729.5C 495.5,729.833 493.5,730.167 491.5,730.5C 491.02,727.995 490.02,725.662 488.5,723.5C 485.464,721.448 482.464,719.448 479.5,717.5C 478.5,717.167 477.833,716.5 477.5,715.5C 474.858,711.852 472.191,708.185 469.5,704.5C 468.531,703.691 467.698,702.691 467,701.5C 466.5,641.834 466.333,582.168 466.5,522.5C 504.167,522.5 541.833,522.5 579.5,522.5 Z M 589.5,554.5 C 596.807,561.472 604.14,568.472 611.5,575.5C 613.5,578.167 615.833,580.5 618.5,582.5C 630.661,594.494 642.994,606.327 655.5,618C 653.075,619.213 650.741,620.379 648.5,621.5C 644.873,622.321 641.54,623.654 638.5,625.5C 636.5,625.833 634.5,626.167 632.5,626.5C 632.158,625.662 631.492,625.328 630.5,625.5C 628.167,622.5 625.5,619.833 622.5,617.5C 621.5,615.833 620.167,614.5 618.5,613.5C 617.5,611.833 616.167,610.5 614.5,609.5C 613.833,609.5 613.5,609.167 613.5,608.5C 610.5,604.833 607.167,601.5 603.5,598.5C 600.833,596.167 598.167,593.833 595.5,591.5C 593.167,588.5 590.5,585.833 587.5,583.5C 586.272,582.694 585.272,581.694 584.5,580.5C 582.5,577.833 580.167,575.5 577.5,573.5C 576.055,571.937 574.389,570.604 572.5,569.5C 571.5,567.833 570.167,566.5 568.5,565.5C 567.315,564.143 566.315,562.643 565.5,561C 567.646,557.207 569.646,553.374 571.5,549.5C 573.25,548.341 574.25,546.674 574.5,544.5C 575.458,544.047 576.292,543.381 577,542.5C 581.036,546.704 585.202,550.704 589.5,554.5 Z"/></g>
<g><path style="opacity:1" fill="#050505" d="M 680.5,592.5 C 674.364,585.33 667.697,578.83 660.5,573C 654.825,566.474 648.492,560.974 641.5,556.5C 638.737,550.614 634.403,546.281 628.5,543.5C 626.611,542.396 624.945,541.063 623.5,539.5C 623.938,539.565 624.272,539.399 624.5,539C 621.65,536.318 618.984,533.484 616.5,530.5C 626.478,529.501 636.478,529.168 646.5,529.5C 650.268,528.213 653.935,528.213 657.5,529.5C 658.712,532.107 660.712,533.774 663.5,534.5C 666.5,537.167 669.5,539.833 672.5,542.5C 673.833,545.833 676.167,548.167 679.5,549.5C 682.167,551.833 684.833,554.167 687.5,556.5C 688.5,559.5 690.5,561.5 693.5,562.5C 696.526,565.195 699.526,567.862 702.5,570.5C 703.833,573.833 706.167,576.167 709.5,577.5C 712.281,581.056 715.948,582.723 720.5,582.5C 724.151,583.165 727.985,583.499 732,583.5C 736.229,583.49 740.062,582.823 743.5,581.5C 743.833,581.5 744.167,581.5 744.5,581.5C 745.152,582.725 746.319,583.392 748,583.5C 749.385,583.486 750.551,583.152 751.5,582.5C 751.833,582.5 752.167,582.5 752.5,582.5C 756.106,579.976 758.772,576.643 760.5,572.5C 762.262,571.738 763.262,570.404 763.5,568.5C 764.906,568.027 765.573,567.027 765.5,565.5C 767.262,564.738 768.262,563.404 768.5,561.5C 770.587,560.415 771.92,558.749 772.5,556.5C 773.786,553.883 775.453,551.55 777.5,549.5C 778.906,549.027 779.573,548.027 779.5,546.5C 781.587,545.415 782.92,543.749 783.5,541.5C 785.262,540.738 786.262,539.404 786.5,537.5C 788.262,536.738 789.262,535.404 789.5,533.5C 791.9,531.704 793.567,529.37 794.5,526.5C 795.962,525.542 797.295,524.376 798.5,523C 804.5,522.333 810.5,522.333 816.5,523C 794.467,552.233 772.8,581.733 751.5,611.5C 735.177,612.666 718.844,612.833 702.5,612C 695.276,605.27 687.942,598.77 680.5,592.5 Z"/></g>
<g><path style="opacity:1" fill="#606060" d="M 584.5,525.5 C 586.167,526.5 587.5,527.833 588.5,529.5C 585.858,529.512 584.525,528.179 584.5,525.5 Z"/></g>
<g><path style="opacity:1" fill="#a1a3a3" d="M 646.5,529.5 C 636.478,529.168 626.478,529.501 616.5,530.5C 618.984,533.484 621.65,536.318 624.5,539C 624.272,539.399 623.938,539.565 623.5,539.5C 620.536,537.038 617.703,534.371 615,531.5C 614.383,530.551 614.549,529.718 615.5,529C 626.008,528.175 636.342,528.341 646.5,529.5 Z"/></g>
<g><path style="opacity:1" fill="#8b8b87" d="M 657.5,529.5 C 660.089,530.419 662.089,532.086 663.5,534.5C 660.712,533.774 658.712,532.107 657.5,529.5 Z"/></g>
<g><path style="opacity:1" fill="#818181" d="M 794.5,526.5 C 793.567,529.37 791.9,531.704 789.5,533.5C 790.433,530.63 792.1,528.296 794.5,526.5 Z"/></g>
<g><path style="opacity:1" fill="#545454" d="M 588.5,529.5 C 590.167,530.5 591.5,531.833 592.5,533.5C 589.858,533.512 588.525,532.179 588.5,529.5 Z"/></g>
<g><path style="opacity:1" fill="#7c7c7d" d="M 887.5,552.5 C 886.078,552.291 884.745,551.791 883.5,551C 877.833,545.333 872.167,539.667 866.5,534C 863.843,533.825 861.176,533.992 858.5,534.5C 861.183,532.719 864.183,532.219 867.5,533C 874.671,539.004 881.338,545.504 887.5,552.5 Z"/></g>
<g><path style="opacity:1" fill="#8a8a8a" d="M 789.5,533.5 C 789.262,535.404 788.262,536.738 786.5,537.5C 786.738,535.596 787.738,534.262 789.5,533.5 Z"/></g>
<g><path style="opacity:1" fill="#909390" d="M 858.5,534.5 C 856.485,535.924 854.152,536.59 851.5,536.5C 853.515,535.076 855.848,534.41 858.5,534.5 Z"/></g>
<g><path style="opacity:1" fill="#030303" d="M 887.5,552.5 C 887.351,553.552 887.517,554.552 888,555.5C 891.395,558.407 894.895,561.073 898.5,563.5C 898.833,566.5 900.5,568.167 903.5,568.5C 903.833,570.833 905.167,572.167 907.5,572.5C 911.439,578.108 916.106,583.108 921.5,587.5C 922.672,605.717 924.338,623.884 926.5,642C 924.767,644.958 923.767,648.125 923.5,651.5C 923.34,653.153 922.674,654.486 921.5,655.5C 918.645,657.281 917.312,659.948 917.5,663.5C 913.365,666.763 911.032,671.097 910.5,676.5C 910.672,677.492 910.338,678.158 909.5,678.5C 907.567,679.642 906.067,681.308 905,683.5C 894.562,703.375 884.396,723.375 874.5,743.5C 875.098,744.795 875.598,746.128 876,747.5C 877.735,750.362 879.902,752.696 882.5,754.5C 883.674,755.514 884.34,756.847 884.5,758.5C 884.372,760.655 884.872,762.655 886,764.5C 889.34,769.175 892.173,774.175 894.5,779.5C 895.849,780.909 897.182,782.243 898.5,783.5C 898.727,786.577 899.727,789.41 901.5,792C 898.771,797.616 896.771,803.45 895.5,809.5C 894.624,809.369 893.957,809.702 893.5,810.5C 889.894,817.379 886.561,824.379 883.5,831.5C 883.957,832.298 884.624,832.631 885.5,832.5C 885.5,833.167 885.167,833.5 884.5,833.5C 883.624,833.369 882.957,833.702 882.5,834.5C 876.798,844.371 872.465,854.705 869.5,865.5C 868.624,865.369 867.957,865.702 867.5,866.5C 864.893,871.38 862.56,876.38 860.5,881.5C 855.101,885.189 849.767,888.856 844.5,892.5C 844.158,893.338 843.492,893.672 842.5,893.5C 835.249,896.279 828.916,900.279 823.5,905.5C 821.784,907.025 819.784,908.025 817.5,908.5C 811.421,910.861 806.087,914.194 801.5,918.5C 800.609,919.11 799.609,919.443 798.5,919.5C 797.325,919.719 796.325,919.386 795.5,918.5C 793.345,913.843 791.012,909.51 788.5,905.5C 787.559,903.95 786.893,902.284 786.5,900.5C 786.573,898.973 785.906,897.973 784.5,897.5C 784.5,897.167 784.5,896.833 784.5,896.5C 782.622,890.413 779.955,884.746 776.5,879.5C 775.655,878.329 774.989,876.995 774.5,875.5C 773.862,873.54 773.862,871.707 774.5,870C 770.444,864.053 766.778,857.887 763.5,851.5C 761.992,849.819 760.992,847.819 760.5,845.5C 760.293,842.759 759.293,840.426 757.5,838.5C 756.662,838.158 756.328,837.492 756.5,836.5C 756.343,835.127 756.51,833.793 757,832.5C 760.377,829.292 763.544,825.958 766.5,822.5C 773.468,837.105 780.468,851.772 787.5,866.5C 787.957,867.298 788.624,867.631 789.5,867.5C 790.167,867.5 790.833,867.5 791.5,867.5C 795.477,862.542 798.144,856.875 799.5,850.5C 800.597,847.314 801.93,844.314 803.5,841.5C 808.123,835.25 811.456,828.25 813.5,820.5C 814.227,818.046 815.227,815.713 816.5,813.5C 817.79,812.942 818.623,811.942 819,810.5C 820.467,807.242 821.633,803.908 822.5,800.5C 822.328,799.508 822.662,798.842 823.5,798.5C 825.043,797.264 826.043,795.598 826.5,793.5C 826.376,792.893 826.043,792.56 825.5,792.5C 825.5,791.833 825.833,791.5 826.5,791.5C 828.539,790.089 829.539,788.089 829.5,785.5C 834.785,777.927 838.785,769.593 841.5,760.5C 841.796,758.597 842.463,756.93 843.5,755.5C 844.575,754.438 845.575,754.438 846.5,755.5C 849.245,759.824 851.578,764.324 853.5,769C 845.229,788.373 836.562,807.54 827.5,826.5C 829.074,827.631 830.741,827.798 832.5,827C 834.119,826.764 835.119,825.931 835.5,824.5C 835.5,823.833 835.833,823.5 836.5,823.5C 841.282,824.802 845.616,823.802 849.5,820.5C 852.187,820.664 854.854,820.497 857.5,820C 858.056,819.617 858.389,819.117 858.5,818.5C 863.745,817.279 868.745,815.613 873.5,813.5C 874.822,813.67 875.989,813.337 877,812.5C 879.364,808.781 880.864,804.781 881.5,800.5C 882.358,797.95 883.358,795.45 884.5,793C 882.171,790.174 880.504,787.008 879.5,783.5C 879.25,781.326 878.25,779.659 876.5,778.5C 876.083,775.657 875.083,772.99 873.5,770.5C 872.735,769.388 871.735,768.721 870.5,768.5C 868.642,766.117 867.308,763.45 866.5,760.5C 865.921,757.669 864.588,755.336 862.5,753.5C 861.51,750.849 860.51,748.183 859.5,745.5C 858.735,744.388 857.735,743.721 856.5,743.5C 855.4,742.395 854.733,741.062 854.5,739.5C 854.5,737.5 854.5,735.5 854.5,733.5C 854.66,731.847 855.326,730.514 856.5,729.5C 857.376,729.631 858.043,729.298 858.5,728.5C 862.354,721.8 865.354,714.8 867.5,707.5C 867.975,705.216 868.975,703.216 870.5,701.5C 874.784,696.602 877.784,690.935 879.5,684.5C 880.326,681.515 881.659,678.849 883.5,676.5C 888.757,669.659 892.757,661.993 895.5,653.5C 895.893,651.716 896.559,650.05 897.5,648.5C 899.586,647.852 900.586,646.352 900.5,644C 900.316,642.624 899.649,641.791 898.5,641.5C 897.833,640.5 897.167,639.5 896.5,638.5C 895.966,634.013 893.633,631.347 889.5,630.5C 889.271,628.567 888.438,626.9 887,625.5C 886.329,624.748 885.496,624.414 884.5,624.5C 884.229,622.688 883.562,621.022 882.5,619.5C 880.483,618.039 878.483,616.706 876.5,615.5C 875.986,613.302 874.986,611.302 873.5,609.5C 872.423,608.295 871.09,607.628 869.5,607.5C 866.932,603.383 864.098,599.383 861,595.5C 860.184,594.177 859.017,593.511 857.5,593.5C 857.632,589.968 855.966,587.968 852.5,587.5C 851.833,584.167 849.833,582.167 846.5,581.5C 846.5,581.167 846.5,580.833 846.5,580.5C 843.273,576.399 840.273,572.066 837.5,567.5C 833.074,563.4 828.741,559.4 824.5,555.5C 823.588,553.405 822.421,551.405 821,549.5C 820.329,548.748 819.496,548.414 818.5,548.5C 818.5,547.5 818.5,546.5 818.5,545.5C 821.067,545.279 823.401,544.612 825.5,543.5C 827.028,542.691 828.694,542.024 830.5,541.5C 830.917,542.124 831.584,542.457 832.5,542.5C 836.067,541.239 839.734,540.405 843.5,540C 844.056,539.617 844.389,539.117 844.5,538.5C 847.152,538.59 849.485,537.924 851.5,536.5C 854.152,536.59 856.485,535.924 858.5,534.5C 861.176,533.992 863.843,533.825 866.5,534C 872.167,539.667 877.833,545.333 883.5,551C 884.745,551.791 886.078,552.291 887.5,552.5 Z"/></g>
<g><path style="opacity:1" fill="#818181" d="M 851.5,536.5 C 849.485,537.924 847.152,538.59 844.5,538.5C 846.515,537.076 848.848,536.41 851.5,536.5 Z"/></g>
<g><path style="opacity:1" fill="#747575" d="M 786.5,537.5 C 786.262,539.404 785.262,540.738 783.5,541.5C 783.738,539.596 784.738,538.262 786.5,537.5 Z"/></g>
<g><path style="opacity:1" fill="#5b5b5b" d="M 844.5,538.5 C 844.389,539.117 844.056,539.617 843.5,540C 839.734,540.405 836.067,541.239 832.5,542.5C 831.584,542.457 830.917,542.124 830.5,541.5C 835.094,540.185 839.761,539.185 844.5,538.5 Z"/></g>
<g><path style="opacity:1" fill="#808080" d="M 589.5,554.5 C 585.202,550.704 581.036,546.704 577,542.5C 576.292,543.381 575.458,544.047 574.5,544.5C 574.522,542.2 575.522,541.033 577.5,541C 582.543,544.595 586.543,549.095 589.5,554.5 Z"/></g>
<g><path style="opacity:1" fill="#8e8f8f" d="M 603.5,543.5 C 606.5,545.833 609.167,548.5 611.5,551.5C 608.101,549.612 605.101,547.112 602.5,544C 602.728,543.601 603.062,543.435 603.5,543.5 Z"/></g>
<g><path style="opacity:1" fill="#9e9e9e" d="M 672.5,542.5 C 675.167,544.5 677.5,546.833 679.5,549.5C 676.167,548.167 673.833,545.833 672.5,542.5 Z"/></g>
<g><path style="opacity:1" fill="#bdbdbd" d="M 825.5,543.5 C 823.401,544.612 821.067,545.279 818.5,545.5C 818.5,546.5 818.5,547.5 818.5,548.5C 817.566,547.432 817.232,546.099 817.5,544.5C 820.127,543.908 822.794,543.575 825.5,543.5 Z"/></g>
<g><path style="opacity:1" fill="#737373" d="M 628.5,543.5 C 634.403,546.281 638.737,550.614 641.5,556.5C 636.833,552.5 632.5,548.167 628.5,543.5 Z"/></g>
<g><path style="opacity:1" fill="#999999" d="M 783.5,541.5 C 782.92,543.749 781.587,545.415 779.5,546.5C 780.08,544.251 781.413,542.585 783.5,541.5 Z"/></g>
<g><path style="opacity:1" fill="#8b8b8b" d="M 574.5,544.5 C 574.25,546.674 573.25,548.341 571.5,549.5C 571.75,547.326 572.75,545.659 574.5,544.5 Z"/></g>
<g><path style="opacity:1" fill="#a1a1a1" d="M 779.5,546.5 C 779.573,548.027 778.906,549.027 777.5,549.5C 777.427,547.973 778.094,546.973 779.5,546.5 Z"/></g>
<g><path style="opacity:1" fill="#929292" d="M 818.5,548.5 C 819.496,548.414 820.329,548.748 821,549.5C 822.421,551.405 823.588,553.405 824.5,555.5C 821.781,553.781 819.781,551.447 818.5,548.5 Z"/></g>
<g><path style="opacity:1" fill="#6c6c6c" d="M 589.5,554.5 C 590.552,554.351 591.552,554.517 592.5,555C 597.369,560.037 602.369,564.87 607.5,569.5C 608.96,571.463 610.627,573.296 612.5,575C 612.272,575.399 611.938,575.565 611.5,575.5C 604.14,568.472 596.807,561.472 589.5,554.5 Z"/></g>
<g><path style="opacity:1" fill="#adadad" d="M 687.5,556.5 C 689.833,558.167 691.833,560.167 693.5,562.5C 690.5,561.5 688.5,559.5 687.5,556.5 Z"/></g>
<g><path style="opacity:1" fill="#7f7f7f" d="M 887.5,552.5 C 891.5,555.833 895.167,559.5 898.5,563.5C 894.895,561.073 891.395,558.407 888,555.5C 887.517,554.552 887.351,553.552 887.5,552.5 Z"/></g>
<g><path style="opacity:1" fill="#929291" d="M 571.5,549.5 C 569.646,553.374 567.646,557.207 565.5,561C 566.315,562.643 567.315,564.143 568.5,565.5C 566.271,564.945 564.605,563.611 563.5,561.5C 565.694,557.09 568.361,553.09 571.5,549.5 Z"/></g>
<g><path style="opacity:1" fill="#bbbbbb" d="M 619.5,558.5 C 622.243,560.239 624.243,562.573 625.5,565.5C 622.757,563.761 620.757,561.427 619.5,558.5 Z"/></g>
<g><path style="opacity:1" fill="#969696" d="M 772.5,556.5 C 771.92,558.749 770.587,560.415 768.5,561.5C 769.08,559.251 770.413,557.585 772.5,556.5 Z"/></g>
<g><path style="opacity:1" fill="#787878" d="M 641.5,556.5 C 648.492,560.974 654.825,566.474 660.5,573C 667.697,578.83 674.364,585.33 680.5,592.5C 666.893,581.23 653.893,569.23 641.5,556.5 Z"/></g>
<g><path style="opacity:1" fill="#a0a3a0" d="M 768.5,561.5 C 768.262,563.404 767.262,564.738 765.5,565.5C 765.738,563.596 766.738,562.262 768.5,561.5 Z"/></g>
<g><path style="opacity:1" fill="#969696" d="M 765.5,565.5 C 765.573,567.027 764.906,568.027 763.5,568.5C 763.427,566.973 764.094,565.973 765.5,565.5 Z"/></g>
<g><path style="opacity:1" fill="#646565" d="M 798.5,521.5 C 805.451,520.934 812.118,521.601 818.5,523.5C 796.524,553.148 774.524,582.815 752.5,612.5C 735.51,613.666 718.51,613.833 701.5,613C 693.996,606.662 686.996,599.829 680.5,592.5C 687.942,598.77 695.276,605.27 702.5,612C 718.844,612.833 735.177,612.666 751.5,611.5C 772.8,581.733 794.467,552.233 816.5,523C 810.5,522.333 804.5,522.333 798.5,523C 797.295,524.376 795.962,525.542 794.5,526.5C 795.08,524.251 796.413,522.585 798.5,521.5 Z"/></g>
<g><path style="opacity:1" fill="#707070" d="M 898.5,563.5 C 900.5,564.833 902.167,566.5 903.5,568.5C 900.5,568.167 898.833,566.5 898.5,563.5 Z"/></g>
<g><path style="opacity:1" fill="#52524f" d="M 568.5,565.5 C 570.167,566.5 571.5,567.833 572.5,569.5C 569.858,569.512 568.525,568.179 568.5,565.5 Z"/></g>
<g><path style="opacity:1" fill="#5f5f5f" d="M 824.5,555.5 C 828.741,559.4 833.074,563.4 837.5,567.5C 840.273,572.066 843.273,576.399 846.5,580.5C 838.451,572.785 831.118,564.452 824.5,555.5 Z"/></g>
<g><path style="opacity:1" fill="#757575" d="M 763.5,568.5 C 763.262,570.404 762.262,571.738 760.5,572.5C 760.738,570.596 761.738,569.262 763.5,568.5 Z"/></g>
<g><path style="opacity:1" fill="#7f7e7e" d="M 903.5,568.5 C 905.167,569.5 906.5,570.833 907.5,572.5C 905.167,572.167 903.833,570.833 903.5,568.5 Z"/></g>
<g><path style="opacity:1" fill="#767676" d="M 629.5,568.5 C 632.167,570.5 634.5,572.833 636.5,575.5C 633.026,574.271 630.693,571.938 629.5,568.5 Z"/></g>
<g><path style="opacity:1" fill="#a9a1a8" d="M 577.5,573.5 C 580.167,575.5 582.5,577.833 584.5,580.5C 584.565,580.938 584.399,581.272 584,581.5C 581.5,579 579,576.5 576.5,574C 576.728,573.601 577.062,573.435 577.5,573.5 Z"/></g>
<g><path style="opacity:1" fill="#a6a6a6" d="M 702.5,570.5 C 705.167,572.5 707.5,574.833 709.5,577.5C 706.167,576.167 703.833,573.833 702.5,570.5 Z"/></g>
<g><path style="opacity:1" fill="#6e6e6d" d="M 907.5,572.5 C 912.909,577.242 917.909,582.242 922.5,587.5C 922.167,587.5 921.833,587.5 921.5,587.5C 916.106,583.108 911.439,578.108 907.5,572.5 Z"/></g>
<g><path style="opacity:1" fill="#3a3a3a" d="M 607.5,569.5 C 608.239,569.369 608.906,569.536 609.5,570C 612.959,573.771 616.292,577.605 619.5,581.5C 618.833,581.5 618.5,581.833 618.5,582.5C 615.833,580.5 613.5,578.167 611.5,575.5C 611.938,575.565 612.272,575.399 612.5,575C 610.627,573.296 608.96,571.463 607.5,569.5 Z"/></g>
<g><path style="opacity:1" fill="#878787" d="M 760.5,572.5 C 758.772,576.643 756.106,579.976 752.5,582.5C 754.697,578.762 757.364,575.429 760.5,572.5 Z"/></g>
<g><path style="opacity:1" fill="#4e4e4e" d="M 743.5,581.5 C 740.062,582.823 736.229,583.49 732,583.5C 727.985,583.499 724.151,583.165 720.5,582.5C 727.707,581.587 735.374,581.253 743.5,581.5 Z"/></g>
<g><path style="opacity:1" fill="#575757" d="M 744.5,581.5 C 746.814,582.051 749.147,582.385 751.5,582.5C 750.551,583.152 749.385,583.486 748,583.5C 746.319,583.392 745.152,582.725 744.5,581.5 Z"/></g>
<g><path style="opacity:1" fill="#484848" d="M 805.5,581.5 C 805.389,582.117 805.056,582.617 804.5,583C 800.642,583.81 796.976,583.643 793.5,582.5C 797.4,581.57 801.4,581.237 805.5,581.5 Z"/></g>
<g><path style="opacity:1" fill="#7d7d7d" d="M 846.5,581.5 C 849.833,582.167 851.833,584.167 852.5,587.5C 850.167,585.833 848.167,583.833 846.5,581.5 Z"/></g>
<g><path style="opacity:1" fill="#040404" d="M 805.5,581.5 C 805.833,581.5 806.167,581.5 806.5,581.5C 807.678,582.999 809.345,583.999 811.5,584.5C 803.039,593.13 794.706,601.963 786.5,611C 781.467,611.829 776.467,611.662 771.5,610.5C 772.63,609.378 773.297,608.044 773.5,606.5C 775.262,605.738 776.262,604.404 776.5,602.5C 777.906,602.027 778.573,601.027 778.5,599.5C 780.262,598.738 781.262,597.404 781.5,595.5C 783.262,594.738 784.262,593.404 784.5,591.5C 786.587,590.415 787.92,588.749 788.5,586.5C 789.906,586.027 790.573,585.027 790.5,583.5C 791.209,582.596 792.209,582.263 793.5,582.5C 796.976,583.643 800.642,583.81 804.5,583C 805.056,582.617 805.389,582.117 805.5,581.5 Z"/></g>
<g><path style="opacity:1" fill="#989898" d="M 646.5,584.5 C 649.167,586.5 651.5,588.833 653.5,591.5C 650.167,590.167 647.833,587.833 646.5,584.5 Z"/></g>
<g><path style="opacity:1" fill="#8a8a8a" d="M 790.5,583.5 C 790.573,585.027 789.906,586.027 788.5,586.5C 788.427,584.973 789.094,583.973 790.5,583.5 Z"/></g>
<g><path style="opacity:1" fill="#6f6f6f" d="M 587.5,583.5 C 590.5,585.833 593.167,588.5 595.5,591.5C 591.805,589.805 589.139,587.139 587.5,583.5 Z"/></g>
<g><path style="opacity:1" fill="#818181" d="M 788.5,586.5 C 787.92,588.749 786.587,590.415 784.5,591.5C 785.08,589.251 786.413,587.585 788.5,586.5 Z"/></g>
<g><path style="opacity:1" fill="#5c5c5c" d="M 852.5,587.5 C 855.966,587.968 857.632,589.968 857.5,593.5C 855.086,592.089 853.419,590.089 852.5,587.5 Z"/></g>
<g><path style="opacity:1" fill="#8b8b8b" d="M 784.5,591.5 C 784.262,593.404 783.262,594.738 781.5,595.5C 781.738,593.596 782.738,592.262 784.5,591.5 Z"/></g>
<g><path style="opacity:1" fill="#a5a5a5" d="M 781.5,595.5 C 781.262,597.404 780.262,598.738 778.5,599.5C 778.738,597.596 779.738,596.262 781.5,595.5 Z"/></g>
<g><path style="opacity:1" fill="#777777" d="M 657.5,595.5 C 659.34,597.168 661.34,598.668 663.5,600C 664.823,600.816 665.489,601.983 665.5,603.5C 663.372,601.597 661.039,599.931 658.5,598.5C 657.873,597.583 657.539,596.583 657.5,595.5 Z"/></g>
<g><path style="opacity:1" fill="#7f7e7c" d="M 857.5,593.5 C 859.017,593.511 860.184,594.177 861,595.5C 864.098,599.383 866.932,603.383 869.5,607.5C 865.155,603.153 861.155,598.486 857.5,593.5 Z"/></g>
<g><path style="opacity:1" fill="#000000" d="M 1254.5,600.5 C 1276.39,599.218 1285.23,609.218 1281,630.5C 1271.42,647.25 1257.59,652.083 1239.5,645C 1228.48,634.343 1227.65,622.843 1237,610.5C 1242.04,605.594 1247.87,602.261 1254.5,600.5 Z"/></g>
<g><path style="opacity:1" fill="#828282" d="M 778.5,599.5 C 778.573,601.027 777.906,602.027 776.5,602.5C 776.427,600.973 777.094,599.973 778.5,599.5 Z"/></g>
<g><path style="opacity:1" fill="#a5a5a5" d="M 603.5,598.5 C 607.167,601.5 610.5,604.833 613.5,608.5C 609.167,606.167 605.833,602.833 603.5,598.5 Z"/></g>
<g><path style="opacity:1" fill="#777777" d="M 776.5,602.5 C 776.262,604.404 775.262,605.738 773.5,606.5C 773.738,604.596 774.738,603.262 776.5,602.5 Z"/></g>
<g><path style="opacity:1" fill="#6c6c6c" d="M 573.5,594.5 C 574.552,594.351 575.552,594.517 576.5,595C 583.982,602.648 591.648,610.148 599.5,617.5C 600.506,618.396 600.506,619.062 599.5,619.5C 590.807,611.139 582.14,602.806 573.5,594.5 Z"/></g>
<g><path style="opacity:1" fill="#686868" d="M 806.5,581.5 C 808.857,581.337 811.19,581.503 813.5,582C 814.451,582.718 814.617,583.551 814,584.5C 804.488,593.712 795.322,603.212 786.5,613C 780.833,613.667 775.167,613.667 769.5,613C 769.167,612.667 768.833,612.333 768.5,612C 769.833,609.809 771.5,607.976 773.5,606.5C 773.297,608.044 772.63,609.378 771.5,610.5C 776.467,611.662 781.467,611.829 786.5,611C 794.706,601.963 803.039,593.13 811.5,584.5C 809.345,583.999 807.678,582.999 806.5,581.5 Z"/></g>
<g><path style="opacity:1" fill="#4a4849" d="M 921.5,587.5 C 921.833,587.5 922.167,587.5 922.5,587.5C 924.355,605.371 926.355,623.371 928.5,641.5C 927.333,645.168 925.666,648.502 923.5,651.5C 923.767,648.125 924.767,644.958 926.5,642C 924.338,623.884 922.672,605.717 921.5,587.5 Z"/></g>
<g><path style="opacity:1" fill="#747373" d="M 618.5,582.5 C 618.5,581.833 618.833,581.5 619.5,581.5C 631.941,593.772 644.608,605.939 657.5,618C 655.027,620.437 652.027,621.604 648.5,621.5C 650.741,620.379 653.075,619.213 655.5,618C 642.994,606.327 630.661,594.494 618.5,582.5 Z"/></g>
<g><path style="opacity:1" fill="#666766" d="M 869.5,607.5 C 871.09,607.628 872.423,608.295 873.5,609.5C 874.986,611.302 875.986,613.302 876.5,615.5C 873.705,613.249 871.372,610.582 869.5,607.5 Z"/></g>
<g><path style="opacity:1" fill="#5b5b5b" d="M 573.5,594.5 C 566.338,587.505 559.004,580.672 551.5,574C 541.495,573.611 531.495,573.778 521.5,574.5C 521.667,620.501 521.5,666.501 521,712.5C 520.329,713.252 519.496,713.586 518.5,713.5C 520.479,666.65 521.145,619.65 520.5,572.5C 531.162,571.79 541.829,571.623 552.5,572C 557.646,577.477 563.146,582.644 569,587.5C 570.75,589.734 572.25,592.068 573.5,594.5 Z"/></g>
<g><path style="opacity:1" fill="#a5a5a5" d="M 672.5,609.5 C 675.167,611.5 677.5,613.833 679.5,616.5C 676.167,615.167 673.833,612.833 672.5,609.5 Z"/></g>
<g><path style="opacity:1" fill="#666666" d="M 614.5,609.5 C 616.167,610.5 617.5,611.833 618.5,613.5C 615.858,613.512 614.525,612.179 614.5,609.5 Z"/></g>
<g><path style="opacity:1" fill="#000000" d="M 1059.5,614.5 C 1092.17,614.333 1124.84,614.5 1157.5,615C 1189.53,619.002 1203.36,636.835 1199,668.5C 1196.01,679.837 1189.51,688.671 1179.5,695C 1172.82,698.782 1165.82,701.782 1158.5,704C 1183.86,708.514 1195.36,723.681 1193,749.5C 1188.65,776.518 1173.15,793.351 1146.5,800C 1140.61,801.64 1134.61,802.64 1128.5,803C 1095.17,803.5 1061.83,803.667 1028.5,803.5C 1038.51,740.437 1048.84,677.437 1059.5,614.5 Z M 1105.5,655.5 C 1116.63,654.961 1127.63,655.795 1138.5,658C 1144.02,660.919 1145.86,665.419 1144,671.5C 1141.53,679.495 1136.36,684.995 1128.5,688C 1119.25,689.417 1109.91,689.917 1100.5,689.5C 1101.95,678.132 1103.62,666.799 1105.5,655.5 Z M 1094.5,723.5 C 1105.51,723.333 1116.51,723.5 1127.5,724C 1136.1,725.725 1139.94,730.891 1139,739.5C 1134.53,753.835 1124.7,761.001 1109.5,761C 1102.51,761.5 1095.51,761.666 1088.5,761.5C 1090.22,748.779 1092.22,736.112 1094.5,723.5 Z"/></g>
<g><path style="opacity:1" fill="#575757" d="M 618.5,613.5 C 620.167,614.5 621.5,615.833 622.5,617.5C 619.858,617.512 618.525,616.179 618.5,613.5 Z"/></g>
<g><path style="opacity:1" fill="#b7b7b7" d="M 679.5,616.5 C 680.993,617.312 681.66,618.645 681.5,620.5C 681.48,621.726 681.147,622.726 680.5,623.5C 680.552,621.097 680.219,618.764 679.5,616.5 Z"/></g>
<g><path style="opacity:1" fill="#525252" d="M 876.5,615.5 C 878.483,616.706 880.483,618.039 882.5,619.5C 883.562,621.022 884.229,622.688 884.5,624.5C 881.119,622.12 878.453,619.12 876.5,615.5 Z"/></g>
<g><path style="opacity:1" fill="#404040" d="M 599.5,617.5 C 603.724,621.057 607.724,625.057 611.5,629.5C 610.833,629.5 610.5,629.833 610.5,630.5C 606.5,627.167 602.833,623.5 599.5,619.5C 600.506,619.062 600.506,618.396 599.5,617.5 Z"/></g>
<g><path style="opacity:1" fill="#6e6e6e" d="M 884.5,624.5 C 885.496,624.414 886.329,624.748 887,625.5C 888.438,626.9 889.271,628.567 889.5,630.5C 887.11,629.109 885.443,627.109 884.5,624.5 Z"/></g>
<g><path style="opacity:1" fill="#2c2c2c" d="M 648.5,621.5 C 643.919,626.455 638.253,628.622 631.5,628C 630.748,627.329 630.414,626.496 630.5,625.5C 631.492,625.328 632.158,625.662 632.5,626.5C 634.68,627.794 636.68,627.461 638.5,625.5C 641.54,623.654 644.873,622.321 648.5,621.5 Z"/></g>
<g><path style="opacity:1" fill="#999999" d="M 638.5,625.5 C 636.68,627.461 634.68,627.794 632.5,626.5C 634.5,626.167 636.5,625.833 638.5,625.5 Z"/></g>
<g><path style="opacity:1" fill="#474747" d="M 465.5,521.5 C 503.67,521.168 541.67,521.501 579.5,522.5C 541.833,522.5 504.167,522.5 466.5,522.5C 466.333,582.168 466.5,641.834 467,701.5C 467.698,702.691 468.531,703.691 469.5,704.5C 468.833,704.5 468.167,704.5 467.5,704.5C 466.542,704.047 465.708,703.381 465,702.5C 464.168,641.999 464.335,581.665 465.5,521.5 Z"/></g>
<g><path style="opacity:1" fill="#454545" d="M 889.5,630.5 C 893.633,631.347 895.966,634.013 896.5,638.5C 894.177,635.874 891.843,633.207 889.5,630.5 Z"/></g>
<g><path style="opacity:1" fill="#acacac" d="M 679.5,632.5 C 678.747,642.859 677.747,653.192 676.5,663.5C 675.762,653.057 676.762,642.723 679.5,632.5 Z"/></g>
<g><path style="opacity:1" fill="#717171" d="M 898.5,641.5 C 899.649,641.791 900.316,642.624 900.5,644C 900.586,646.352 899.586,647.852 897.5,648.5C 897.877,646.742 898.544,645.075 899.5,643.5C 899.137,642.817 898.804,642.15 898.5,641.5 Z"/></g>
<g><path style="opacity:1" fill="#696969" d="M 610.5,630.5 C 610.5,629.833 610.833,629.5 611.5,629.5C 614.797,632.296 617.964,635.296 621,638.5C 621.772,643.904 621.439,649.238 620,654.5C 616.215,658.131 612.049,661.131 607.5,663.5C 610.808,660.365 614.308,657.365 618,654.5C 618.672,649.965 619.506,645.465 620.5,641C 617.678,637.011 614.344,633.511 610.5,630.5 Z"/></g>
<g><path style="opacity:1" fill="#7c7d7d" d="M 921.5,655.5 C 920.674,658.485 919.341,661.151 917.5,663.5C 917.312,659.948 918.645,657.281 921.5,655.5 Z"/></g>
<g><path style="opacity:1" fill="#000000" d="M 1353.5,659.5 C 1410.79,655.285 1436.29,681.619 1430,738.5C 1419.92,781.881 1392.59,804.214 1348,805.5C 1298.73,803.889 1277.06,778.556 1283,729.5C 1290.5,689.834 1314,666.501 1353.5,659.5 Z M 1360.5,698.5 C 1373.8,698.474 1379.8,705.14 1378.5,718.5C 1378.89,735.197 1373.56,749.697 1362.5,762C 1345.39,770.576 1336.39,765.243 1335.5,746C 1335.55,731.962 1339.38,719.129 1347,707.5C 1350.87,703.331 1355.37,700.331 1360.5,698.5 Z"/></g>
<g><path style="opacity:1" fill="#000000" d="M 1734.5,659.5 C 1755.15,656.728 1774.15,660.894 1791.5,672C 1806.88,685.913 1810.38,702.413 1802,721.5C 1796.54,728.956 1789.37,734.122 1780.5,737C 1758.26,743.113 1735.6,746.28 1712.5,746.5C 1712.44,764.938 1721.44,772.104 1739.5,768C 1745.86,766.664 1750.53,763.164 1753.5,757.5C 1755.5,757.167 1757.5,756.833 1759.5,756.5C 1773.17,757.548 1786.84,758.548 1800.5,759.5C 1795.51,777.997 1784.18,791.163 1766.5,799C 1743.08,808.109 1719.42,808.776 1695.5,801C 1672.54,790.44 1661.54,772.44 1662.5,747C 1662.93,708.781 1680.26,681.448 1714.5,665C 1721.12,662.515 1727.78,660.682 1734.5,659.5 Z M 1737.5,696.5 C 1743.86,695.901 1749.86,697.068 1755.5,700C 1758.95,703.807 1759.29,707.807 1756.5,712C 1750.79,714.594 1744.79,715.927 1738.5,716C 1731.5,716.667 1724.5,716.667 1717.5,716C 1720.79,705.878 1727.45,699.378 1737.5,696.5 Z"/></g>
<g><path style="opacity:1" fill="#000000" d="M 1879.5,659.5 C 1893.94,658.899 1908.27,659.732 1922.5,662C 1944.56,667.216 1956.23,681.049 1957.5,703.5C 1941.82,704.358 1926.16,705.358 1910.5,706.5C 1909.87,697.734 1905.04,693.734 1896,694.5C 1890.45,694.872 1885.28,696.372 1880.5,699C 1876.5,702.667 1876.5,706.333 1880.5,710C 1897.61,713.463 1914.61,717.463 1931.5,722C 1945.75,726.92 1953.09,736.92 1953.5,752C 1952.69,770.966 1944.02,784.966 1927.5,794C 1900.75,806.565 1873.08,808.898 1844.5,801C 1824.04,793.707 1813.37,779.207 1812.5,757.5C 1828.83,756.453 1845.16,755.453 1861.5,754.5C 1861.58,762.076 1865.24,766.909 1872.5,769C 1878.9,769.818 1885.24,769.484 1891.5,768C 1897.05,766.47 1899.22,762.97 1898,757.5C 1896.42,755.959 1894.59,754.792 1892.5,754C 1879.83,751.333 1867.17,748.667 1854.5,746C 1832.22,739.389 1822.38,724.556 1825,701.5C 1829.49,683.337 1840.66,671.17 1858.5,665C 1865.51,662.705 1872.51,660.872 1879.5,659.5 Z"/></g>
<g><path style="opacity:1" fill="#000000" d="M 2029.5,659.5 C 2043.94,658.899 2058.27,659.732 2072.5,662C 2094.56,667.218 2106.23,681.052 2107.5,703.5C 2091.82,704.358 2076.16,705.358 2060.5,706.5C 2059.87,697.734 2055.04,693.734 2046,694.5C 2040.45,694.872 2035.28,696.372 2030.5,699C 2026.5,702.667 2026.5,706.333 2030.5,710C 2046.84,713.557 2063.17,717.224 2079.5,721C 2094.67,725.835 2102.67,736.168 2103.5,752C 2102.71,770.931 2094.04,784.931 2077.5,794C 2050.75,806.565 2023.08,808.898 1994.5,801C 1973.98,793.659 1963.31,779.159 1962.5,757.5C 1978.83,756.453 1995.16,755.453 2011.5,754.5C 2011.93,761.887 2015.6,766.72 2022.5,769C 2028.9,769.818 2035.24,769.484 2041.5,768C 2047.05,766.47 2049.22,762.97 2048,757.5C 2046.42,755.959 2044.59,754.792 2042.5,754C 2028.77,751.254 2015.1,748.254 2001.5,745C 1981.37,737.902 1972.53,723.735 1975,702.5C 1979.04,683.782 1990.21,671.282 2008.5,665C 2015.51,662.705 2022.51,660.872 2029.5,659.5 Z"/></g>
<g><path style="opacity:1" fill="#000000" d="M 1224.5,661.5 C 1241.83,661.5 1259.17,661.5 1276.5,661.5C 1269.27,708.903 1261.6,756.237 1253.5,803.5C 1236.17,803.5 1218.83,803.5 1201.5,803.5C 1208.73,756.09 1216.4,708.757 1224.5,661.5 Z"/></g>
<g><path style="opacity:1" fill="#000000" d="M 1444.5,661.5 C 1462.83,661.5 1481.17,661.5 1499.5,661.5C 1499.79,691.836 1500.29,722.169 1501,752.5C 1512.22,722.389 1523.72,692.389 1535.5,662.5C 1550.82,661.501 1566.15,661.167 1581.5,661.5C 1582.32,691.533 1583.82,721.533 1586,751.5C 1596.27,721.524 1606.44,691.524 1616.5,661.5C 1635.17,661.5 1653.83,661.5 1672.5,661.5C 1651.9,708.705 1630.73,755.705 1609,802.5C 1590.91,803.492 1572.74,803.826 1554.5,803.5C 1551.34,778.905 1548.84,754.239 1547,729.5C 1537.47,754.427 1526.97,778.927 1515.5,803C 1497.5,803.5 1479.5,803.667 1461.5,803.5C 1456,756.147 1450.33,708.813 1444.5,661.5 Z"/></g>
<g><path style="opacity:1" fill="#4f504f" d="M 895.5,653.5 C 892.757,661.993 888.757,669.659 883.5,676.5C 886.739,668.353 890.739,660.686 895.5,653.5 Z"/></g>
<g><path style="opacity:1" fill="#626262" d="M 917.5,663.5 C 915.926,668.32 913.593,672.653 910.5,676.5C 911.032,671.097 913.365,666.763 917.5,663.5 Z"/></g>
<g><path style="opacity:1" fill="#737373" d="M 640.5,675.5 C 636.317,674.146 632.484,672.146 629,669.5C 626.429,670.25 624.262,671.583 622.5,673.5C 622.062,673.565 621.728,673.399 621.5,673C 623.429,670.562 625.762,668.728 628.5,667.5C 631.05,668.87 633.717,670.037 636.5,671C 638.192,672.307 639.525,673.807 640.5,675.5 Z"/></g>
<g><path style="opacity:1" fill="#b4b4b4" d="M 675.5,664.5 C 675.376,669.049 674.709,673.382 673.5,677.5C 673.28,672.9 673.946,668.567 675.5,664.5 Z"/></g>
<g><path style="opacity:1" fill="#7d7d7d" d="M 620.5,674.5 C 620.027,675.906 619.027,676.573 617.5,676.5C 617.821,674.952 618.821,674.285 620.5,674.5 Z"/></g>
<g><path style="opacity:1" fill="#969696" d="M 640.5,675.5 C 642.027,675.427 643.027,676.094 643.5,677.5C 641.973,677.573 640.973,676.906 640.5,675.5 Z"/></g>
<g><path style="opacity:1" fill="#585858" d="M 617.5,676.5 C 616.738,678.262 615.404,679.262 613.5,679.5C 613.694,677.088 615.027,676.088 617.5,676.5 Z"/></g>
<g><path style="opacity:1" fill="#797979" d="M 607.5,663.5 C 597.6,672.129 587.266,680.296 576.5,688C 575.563,688.692 574.897,688.525 574.5,687.5C 584.998,678.757 595.998,670.757 607.5,663.5 Z"/></g>
<g><path style="opacity:1" fill="#7d7d7d" d="M 613.5,679.5 C 611.051,682.556 608.051,684.889 604.5,686.5C 606.668,682.988 609.668,680.655 613.5,679.5 Z"/></g>
<g><path style="opacity:1" fill="#676767" d="M 643.5,677.5 C 648.474,677.244 651.141,679.244 651.5,683.5C 644.019,689.994 636.019,695.661 627.5,700.5C 634.324,694.492 641.491,688.825 649,683.5C 649.667,682.833 649.667,682.167 649,681.5C 646.985,680.303 645.151,678.97 643.5,677.5 Z"/></g>
<g><path style="opacity:1" fill="#949494" d="M 673.5,678.5 C 673.841,682.16 673.175,685.493 671.5,688.5C 671.753,684.96 672.419,681.627 673.5,678.5 Z"/></g>
<g><path style="opacity:1" fill="#757676" d="M 879.5,684.5 C 877.784,690.935 874.784,696.602 870.5,701.5C 872.74,695.35 875.74,689.684 879.5,684.5 Z"/></g>
<g><path style="opacity:1" fill="#727372" d="M 667.5,691.5 C 666.415,693.587 664.749,694.92 662.5,695.5C 662.989,692.676 664.656,691.343 667.5,691.5 Z"/></g>
<g><path style="opacity:1" fill="#767876" d="M 597.5,691.5 C 595.051,694.556 592.051,696.889 588.5,698.5C 590.668,694.988 593.668,692.655 597.5,691.5 Z"/></g>
<g><path style="opacity:1" fill="#737373" d="M 662.5,695.5 C 661.738,697.262 660.404,698.262 658.5,698.5C 659.048,696.468 660.381,695.468 662.5,695.5 Z"/></g>
<g><path style="opacity:1" fill="#777777" d="M 573.5,688.5 C 573.586,689.496 573.252,690.329 572.5,691C 568.266,694.082 563.933,696.916 559.5,699.5C 563.765,695.362 568.431,691.695 573.5,688.5 Z"/></g>
<g><path style="opacity:1" fill="#7d7d7b" d="M 588.5,698.5 C 587.738,700.262 586.404,701.262 584.5,701.5C 585.048,699.468 586.381,698.468 588.5,698.5 Z"/></g>
<g><path style="opacity:1" fill="#747474" d="M 658.5,698.5 C 657.833,699.833 656.833,700.833 655.5,701.5C 655.5,700.5 655.5,699.5 655.5,698.5C 656.5,698.5 657.5,698.5 658.5,698.5 Z"/></g>
<g><path style="opacity:1" fill="#7b7b7b" d="M 579.5,705.5 C 579.027,706.906 578.027,707.573 576.5,707.5C 576.821,705.952 577.821,705.285 579.5,705.5 Z"/></g>
<g><path style="opacity:1" fill="#787878" d="M 627.5,700.5 C 625.471,703.527 622.804,705.86 619.5,707.5C 618.374,708.808 618.374,710.142 619.5,711.5C 618.5,711.5 617.5,711.5 616.5,711.5C 616.343,710.127 616.51,708.793 617,707.5C 620.643,705.27 624.143,702.937 627.5,700.5 Z"/></g>
<g><path style="opacity:1" fill="#6a6959" d="M 650.5,704.5 C 649.738,706.262 648.404,707.262 646.5,707.5C 646.694,705.088 648.027,704.088 650.5,704.5 Z"/></g>
<g><path style="opacity:1" fill="#605f60" d="M 909.5,678.5 C 899.484,699.694 888.984,720.694 878,741.5C 877.333,742.833 877.333,744.167 878,745.5C 879.761,748.411 881.261,751.411 882.5,754.5C 879.902,752.696 877.735,750.362 876,747.5C 875.598,746.128 875.098,744.795 874.5,743.5C 884.396,723.375 894.562,703.375 905,683.5C 906.067,681.308 907.567,679.642 909.5,678.5 Z"/></g>
<g><path style="opacity:1" fill="#525252" d="M 576.5,707.5 C 575.738,709.262 574.404,710.262 572.5,710.5C 572.694,708.088 574.027,707.088 576.5,707.5 Z"/></g>
<g><path style="opacity:1" fill="#7e7f7e" d="M 467.5,704.5 C 468.167,704.5 468.833,704.5 469.5,704.5C 472.191,708.185 474.858,711.852 477.5,715.5C 473.456,712.457 470.123,708.791 467.5,704.5 Z"/></g>
<g><path style="opacity:1" fill="#787878" d="M 559.5,699.5 C 549.558,708.471 538.891,716.471 527.5,723.5C 537.8,715.016 548.467,707.016 559.5,699.5 Z"/></g>
<g><path style="opacity:1" fill="#8f8f8f" d="M 620.5,711.5 C 624.044,711.132 627.044,712.132 629.5,714.5C 626.215,714.072 623.215,713.072 620.5,711.5 Z"/></g>
<g><path style="opacity:1" fill="#535353" d="M 572.5,710.5 C 577.5,712.5 582.5,714.5 587.5,716.5C 581.788,715.814 576.122,714.814 570.5,713.5C 570.285,711.821 570.952,710.821 572.5,710.5 Z"/></g>
<g><path style="opacity:1" fill="#8d8d8d" d="M 641.5,711.5 C 641.027,712.906 640.027,713.573 638.5,713.5C 638.973,712.094 639.973,711.427 641.5,711.5 Z"/></g>
<g><path style="opacity:1" fill="#c1c0c0" d="M 517.5,714.5 C 517.027,715.906 516.027,716.573 514.5,716.5C 514.973,715.094 515.973,714.427 517.5,714.5 Z"/></g>
<g><path style="opacity:1" fill="#929292" d="M 629.5,714.5 C 632.339,714.969 635.005,714.969 637.5,714.5C 637.038,715.88 636.038,716.547 634.5,716.5C 632.578,716.199 630.912,715.533 629.5,714.5 Z"/></g>
<g><path style="opacity:1" fill="#797979" d="M 513.5,717.5 C 513.027,718.906 512.027,719.573 510.5,719.5C 510.821,717.952 511.821,717.285 513.5,717.5 Z"/></g>
<g><path style="opacity:1" fill="#040504" d="M 775.5,716.5 C 777.686,717.823 779.186,719.823 780,722.5C 789.277,744.998 798.944,767.331 809,789.5C 809.584,792.257 809.25,794.923 808,797.5C 805.806,801.749 803.806,806.082 802,810.5C 801.617,809.944 801.117,809.611 800.5,809.5C 799.662,809.158 799.328,808.492 799.5,807.5C 799.771,805.62 799.104,804.287 797.5,803.5C 796.833,803.5 796.5,803.167 796.5,802.5C 797.573,801.749 797.74,800.749 797,799.5C 795.294,794.844 793.127,790.51 790.5,786.5C 789.264,784.351 788.264,782.018 787.5,779.5C 787.33,778.178 787.663,777.011 788.5,776C 787.473,775.487 786.473,774.987 785.5,774.5C 785.313,772.436 784.813,770.436 784,768.5C 782.817,767.269 781.651,767.269 780.5,768.5C 769.261,787.392 757.261,805.725 744.5,823.5C 744.167,824.5 743.5,825.167 742.5,825.5C 740.804,825.685 739.471,826.519 738.5,828C 738.728,828.399 739.062,828.565 739.5,828.5C 737.858,829.803 736.191,831.136 734.5,832.5C 732.596,832.738 731.262,833.738 730.5,835.5C 730.167,836.5 729.5,837.167 728.5,837.5C 726.973,837.427 725.973,838.094 725.5,839.5C 723.249,842.295 720.582,844.628 717.5,846.5C 715.804,846.685 714.471,847.519 713.5,849C 713.728,849.399 714.062,849.565 714.5,849.5C 711.358,851.58 708.358,853.914 705.5,856.5C 703.804,856.685 702.471,857.519 701.5,859C 701.728,859.399 702.062,859.565 702.5,859.5C 701.71,860.401 700.71,861.068 699.5,861.5C 697.983,861.511 696.816,862.177 696,863.5C 695.5,837.502 695.333,811.502 695.5,785.5C 698.313,781.902 701.147,778.235 704,774.5C 709.843,764.81 715.676,755.144 721.5,745.5C 722.11,743.566 723.11,741.899 724.5,740.5C 726.822,739.198 728.155,737.198 728.5,734.5C 729.906,734.027 730.573,733.027 730.5,731.5C 731.906,731.027 732.573,730.027 732.5,728.5C 736.211,727.934 739.544,726.6 742.5,724.5C 746.817,724.917 750.817,724.25 754.5,722.5C 758.833,721.167 763.167,719.833 767.5,718.5C 769.905,717.232 772.572,716.565 775.5,716.5 Z M 733.5,756.5 C 734.167,757.833 734.833,759.167 735.5,760.5C 735.244,764.269 735.577,767.936 736.5,771.5C 736.711,782.052 737.711,792.385 739.5,802.5C 738.564,805.959 736.564,808.793 733.5,811C 726,817.167 718.5,823.333 711,829.5C 710.333,817.167 710.333,804.833 711,792.5C 713.157,790.183 714.657,787.516 715.5,784.5C 716.906,784.027 717.573,783.027 717.5,781.5C 719.25,780.341 720.25,778.674 720.5,776.5C 722.745,773.68 724.745,770.68 726.5,767.5C 728.326,765.853 729.66,763.853 730.5,761.5C 732.25,760.341 733.25,758.674 733.5,756.5 Z"/></g>
<g><path style="opacity:1" fill="#515151" d="M 867.5,707.5 C 865.354,714.8 862.354,721.8 858.5,728.5C 858.043,729.298 857.376,729.631 856.5,729.5C 859.659,721.849 863.325,714.516 867.5,707.5 Z"/></g>
<g><path style="opacity:1" fill="#a2a2a2" d="M 767.5,718.5 C 763.167,719.833 758.833,721.167 754.5,722.5C 753.167,722.5 751.833,722.5 750.5,722.5C 755.817,720.166 761.484,718.833 767.5,718.5 Z"/></g>
<g><path style="opacity:1" fill="#2e2e2e" d="M 588.5,716.5 C 592.048,717.13 595.381,718.13 598.5,719.5C 601.765,721.032 605.098,722.365 608.5,723.5C 602.167,722.557 596,720.891 590,718.5C 588.97,718.164 588.47,717.497 588.5,716.5 Z"/></g>
<g><path style="opacity:1" fill="#4c4c4c" d="M 479.5,717.5 C 482.464,719.448 485.464,721.448 488.5,723.5C 490.02,725.662 491.02,727.995 491.5,730.5C 486.792,726.793 482.792,722.46 479.5,717.5 Z"/></g>
<g><path style="opacity:1" fill="#7a7a7a" d="M 509.5,720.5 C 506.071,724.262 502.071,727.262 497.5,729.5C 500.468,726.674 503.468,723.84 506.5,721C 507.448,720.517 508.448,720.351 509.5,720.5 Z"/></g>
<g><path style="opacity:1" fill="#9e9e9e" d="M 598.5,719.5 C 604.552,720.187 610.218,721.854 615.5,724.5C 614.833,724.5 614.167,724.5 613.5,724.5C 611.883,723.962 610.216,723.629 608.5,723.5C 605.098,722.365 601.765,721.032 598.5,719.5 Z"/></g>
<g><path style="opacity:1" fill="#555555" d="M 750.5,722.5 C 751.833,722.5 753.167,722.5 754.5,722.5C 750.817,724.25 746.817,724.917 742.5,724.5C 744.905,723.232 747.572,722.565 750.5,722.5 Z"/></g>
<g><path style="opacity:1" fill="#737373" d="M 527.5,723.5 C 524.224,727.471 520.224,730.471 515.5,732.5C 519.134,729.016 523.134,726.016 527.5,723.5 Z"/></g>
<g><path style="opacity:1" fill="#595959" d="M 742.5,724.5 C 739.544,726.6 736.211,727.934 732.5,728.5C 735.113,725.84 738.446,724.507 742.5,724.5 Z"/></g>
<g><path style="opacity:1" fill="#595958" d="M 613.5,724.5 C 614.167,724.5 614.833,724.5 615.5,724.5C 622.25,725.166 622.916,727.166 617.5,730.5C 617.5,729.167 617.5,727.833 617.5,726.5C 615.62,726.771 614.287,726.104 613.5,724.5 Z"/></g>
<g><path style="opacity:1" fill="#676767" d="M 497.5,729.5 C 496.866,730.947 495.699,731.613 494,731.5C 492.93,731.472 492.097,731.139 491.5,730.5C 493.5,730.167 495.5,729.833 497.5,729.5 Z"/></g>
<g><path style="opacity:1" fill="#949a94" d="M 732.5,728.5 C 732.573,730.027 731.906,731.027 730.5,731.5C 730.427,729.973 731.094,728.973 732.5,728.5 Z"/></g>
<g><path style="opacity:1" fill="#a3a5a3" d="M 730.5,731.5 C 730.573,733.027 729.906,734.027 728.5,734.5C 728.427,732.973 729.094,731.973 730.5,731.5 Z"/></g>
<g><path style="opacity:1" fill="#7a7a7a" d="M 515.5,732.5 C 513.051,735.556 510.051,737.889 506.5,739.5C 508.949,736.444 511.949,734.111 515.5,732.5 Z"/></g>
<g><path style="opacity:1" fill="#818282" d="M 652.5,739.5 C 649.488,736.655 646.321,733.988 643,731.5C 638.043,734.39 633.21,737.39 628.5,740.5C 632.899,736.122 637.899,732.455 643.5,729.5C 647.257,732.251 650.257,735.585 652.5,739.5 Z"/></g>
<g><path style="opacity:1" fill="#a5a5a5" d="M 728.5,734.5 C 728.155,737.198 726.822,739.198 724.5,740.5C 725.34,738.147 726.674,736.147 728.5,734.5 Z"/></g>
<g><path style="opacity:1" fill="#898989" d="M 854.5,733.5 C 854.5,735.5 854.5,737.5 854.5,739.5C 851.833,737.5 851.833,735.5 854.5,733.5 Z"/></g>
<g><path style="opacity:1" fill="#898a89" d="M 610.5,735.5 C 608.2,737.984 605.533,739.984 602.5,741.5C 604.269,738.32 606.936,736.32 610.5,735.5 Z"/></g>
<g><path style="opacity:1" fill="#696969" d="M 506.5,739.5 C 502.348,744.318 497.348,747.985 491.5,750.5C 496.214,746.454 501.214,742.788 506.5,739.5 Z"/></g>
<g><path style="opacity:1" fill="#737373" d="M 599.5,743.5 C 598.833,744.833 597.833,745.833 596.5,746.5C 596.5,745.5 596.5,744.5 596.5,743.5C 597.5,743.5 598.5,743.5 599.5,743.5 Z"/></g>
<g><path style="opacity:1" fill="#636363" d="M 652.5,739.5 C 657.2,744.199 661.534,749.199 665.5,754.5C 660.052,750.391 655.719,745.391 652.5,739.5 Z"/></g>
<g><path style="opacity:1" fill="#616161" d="M 856.5,743.5 C 857.735,743.721 858.735,744.388 859.5,745.5C 860.51,748.183 861.51,750.849 862.5,753.5C 860.012,750.534 858.012,747.201 856.5,743.5 Z"/></g>
<g><path style="opacity:1" fill="#828282" d="M 594.5,747.5 C 593.738,749.262 592.404,750.262 590.5,750.5C 591.048,748.468 592.381,747.468 594.5,747.5 Z"/></g>
<g><path style="opacity:1" fill="#d3d6d3" d="M 589.5,751.5 C 589.027,752.906 588.027,753.573 586.5,753.5C 586.973,752.094 587.973,751.427 589.5,751.5 Z"/></g>
<g><path style="opacity:1" fill="#7b7b7b" d="M 491.5,750.5 C 490.415,752.587 488.749,753.92 486.5,754.5C 487.585,752.413 489.251,751.08 491.5,750.5 Z"/></g>
<g><path style="opacity:1" fill="#747472" d="M 621.5,745.5 C 617.546,749.812 612.88,753.145 607.5,755.5C 611.454,751.188 616.12,747.855 621.5,745.5 Z"/></g>
<g><path style="opacity:1" fill="#949594" d="M 586.5,753.5 C 586.167,754.5 585.5,755.167 584.5,755.5C 583.262,755.19 583.262,754.69 584.5,754C 585.094,753.536 585.761,753.369 586.5,753.5 Z"/></g>
<g><path style="opacity:1" fill="#8e8e8e" d="M 862.5,753.5 C 864.588,755.336 865.921,757.669 866.5,760.5C 864.412,758.664 863.079,756.331 862.5,753.5 Z"/></g>
<g><path style="opacity:1" fill="#a4a4a4" d="M 735.5,760.5 C 734.833,759.167 734.167,757.833 733.5,756.5C 733.369,755.624 733.702,754.957 734.5,754.5C 735.466,756.396 735.799,758.396 735.5,760.5 Z"/></g>
<g><path style="opacity:1" fill="#7e7e7e" d="M 486.5,754.5 C 484.557,757.471 481.891,759.471 478.5,760.5C 480.8,758.016 483.467,756.016 486.5,754.5 Z"/></g>
<g><path style="opacity:1" fill="#b0b0b0" d="M 669.5,758.5 C 671.914,759.911 673.581,761.911 674.5,764.5C 672.086,763.089 670.419,761.089 669.5,758.5 Z"/></g>
<g><path style="opacity:1" fill="#696968" d="M 775.5,716.5 C 776.251,715.427 777.251,715.26 778.5,716C 789.329,740.483 800.163,764.983 811,789.5C 810.381,798.01 807.381,805.677 802,812.5C 800.961,811.756 800.461,810.756 800.5,809.5C 801.117,809.611 801.617,809.944 802,810.5C 803.806,806.082 805.806,801.749 808,797.5C 809.25,794.923 809.584,792.257 809,789.5C 798.944,767.331 789.277,744.998 780,722.5C 779.186,719.823 777.686,717.823 775.5,716.5 Z"/></g>
<g><path style="opacity:1" fill="#939393" d="M 478.5,760.5 C 476.2,762.984 473.533,764.984 470.5,766.5C 472.443,763.529 475.109,761.529 478.5,760.5 Z"/></g>
<g><path style="opacity:1" fill="#8d8d8d" d="M 674.5,764.5 C 676.914,765.911 678.581,767.911 679.5,770.5C 677.086,769.089 675.419,767.089 674.5,764.5 Z"/></g>
<g><path style="opacity:1" fill="#9a9a9a" d="M 730.5,761.5 C 729.66,763.853 728.326,765.853 726.5,767.5C 726.845,764.802 728.178,762.802 730.5,761.5 Z"/></g>
<g><path style="opacity:1" fill="#626362" d="M 572.5,764.5 C 570.025,767.241 567.025,769.241 563.5,770.5C 563.586,769.504 563.252,768.671 562.5,768C 566.142,767.477 569.476,766.31 572.5,764.5 Z"/></g>
<g><path style="opacity:1" fill="#6b6b6b" d="M 607.5,755.5 C 606.859,756.482 606.193,757.482 605.5,758.5C 608.667,762.167 611.833,765.833 615,769.5C 615.483,770.448 615.649,771.448 615.5,772.5C 611.178,768.173 607.178,763.506 603.5,758.5C 604.283,756.712 605.616,755.712 607.5,755.5 Z"/></g>
<g><path style="opacity:1" fill="#646464" d="M 884.5,758.5 C 889.923,766.341 894.59,774.674 898.5,783.5C 897.182,782.243 895.849,780.909 894.5,779.5C 892.173,774.175 889.34,769.175 886,764.5C 884.872,762.655 884.372,760.655 884.5,758.5 Z"/></g>
<g><path style="opacity:1" fill="#636363" d="M 870.5,768.5 C 871.735,768.721 872.735,769.388 873.5,770.5C 875.083,772.99 876.083,775.657 876.5,778.5C 874.012,775.534 872.012,772.201 870.5,768.5 Z"/></g>
<g><path style="opacity:1" fill="#626362" d="M 615.5,772.5 C 620.811,775.464 624.478,779.797 626.5,785.5C 622.487,781.485 618.821,777.152 615.5,772.5 Z"/></g>
<g><path style="opacity:1" fill="#797979" d="M 721.5,745.5 C 715.676,755.144 709.843,764.81 704,774.5C 701.147,778.235 698.313,781.902 695.5,785.5C 703.174,771.476 711.84,758.143 721.5,745.5 Z"/></g>
<g><path style="opacity:1" fill="#565655" d="M 785.5,774.5 C 786.473,774.987 787.473,775.487 788.5,776C 787.663,777.011 787.33,778.178 787.5,779.5C 786.069,778.22 785.402,776.553 785.5,774.5 Z"/></g>
<g><path style="opacity:1" fill="#9e9e9e" d="M 720.5,776.5 C 720.25,778.674 719.25,780.341 717.5,781.5C 717.75,779.326 718.75,777.659 720.5,776.5 Z"/></g>
<g><path style="opacity:1" fill="#8c8c8c" d="M 554.5,777.5 C 553.738,779.262 552.404,780.262 550.5,780.5C 551.262,778.738 552.596,777.738 554.5,777.5 Z"/></g>
<g><path style="opacity:1" fill="#656565" d="M 841.5,760.5 C 838.785,769.593 834.785,777.927 829.5,785.5C 832.734,776.701 836.734,768.368 841.5,760.5 Z"/></g>
<g><path style="opacity:1" fill="#868686" d="M 876.5,778.5 C 878.25,779.659 879.25,781.326 879.5,783.5C 877.75,782.341 876.75,780.674 876.5,778.5 Z"/></g>
<g><path style="opacity:1" fill="#acacac" d="M 717.5,781.5 C 717.573,783.027 716.906,784.027 715.5,784.5C 715.427,782.973 716.094,781.973 717.5,781.5 Z"/></g>
<g><path style="opacity:1" fill="#767676" d="M 785.5,774.5 C 784.356,772.9 783.189,771.233 782,769.5C 772.917,784.668 763.584,799.668 754,814.5C 751.6,818.402 748.434,821.402 744.5,823.5C 757.261,805.725 769.261,787.392 780.5,768.5C 781.651,767.269 782.817,767.269 784,768.5C 784.813,770.436 785.313,772.436 785.5,774.5 Z"/></g>
<g><path style="opacity:1" fill="#6f6f6f" d="M 829.5,785.5 C 829.539,788.089 828.539,790.089 826.5,791.5C 826.992,789.181 827.992,787.181 829.5,785.5 Z"/></g>
<g><path style="opacity:1" fill="#656564" d="M 835.5,824.5 C 835.119,825.931 834.119,826.764 832.5,827C 830.741,827.798 829.074,827.631 827.5,826.5C 836.562,807.54 845.229,788.373 853.5,769C 851.578,764.324 849.245,759.824 846.5,755.5C 845.575,754.438 844.575,754.438 843.5,755.5C 843.905,751.538 845.405,750.871 848,753.5C 851.171,758.343 853.671,763.509 855.5,769C 847.585,787.665 839.252,806.165 830.5,824.5C 832.003,825.052 833.669,825.052 835.5,824.5 Z"/></g>
<g><path style="opacity:1" fill="#5e5e5d" d="M 898.5,783.5 C 900.796,785.92 902.463,788.753 903.5,792C 901.202,798.09 898.535,803.924 895.5,809.5C 896.771,803.45 898.771,797.616 901.5,792C 899.727,789.41 898.727,786.577 898.5,783.5 Z"/></g>
<g><path style="opacity:1" fill="#b1b1b1" d="M 736.5,771.5 C 738.139,779.954 739.139,788.621 739.5,797.5C 739.5,799.167 739.5,800.833 739.5,802.5C 737.711,792.385 736.711,782.052 736.5,771.5 Z"/></g>
<g><path style="opacity:1" fill="#969697" d="M 790.5,786.5 C 793.127,790.51 795.294,794.844 797,799.5C 797.74,800.749 797.573,801.749 796.5,802.5C 793.937,797.375 791.937,792.042 790.5,786.5 Z"/></g>
<g><path style="opacity:1" fill="#bababa" d="M 530.5,795.5 C 530.027,796.906 529.027,797.573 527.5,797.5C 527.973,796.094 528.973,795.427 530.5,795.5 Z"/></g>
<g><path style="opacity:1" fill="#8c8c8c" d="M 825.5,792.5 C 826.043,792.56 826.376,792.893 826.5,793.5C 826.043,795.598 825.043,797.264 823.5,798.5C 823.971,796.421 824.637,794.421 825.5,792.5 Z"/></g>
<g><path style="opacity:1" fill="#737373" d="M 715.5,784.5 C 714.657,787.516 713.157,790.183 711,792.5C 710.333,804.833 710.333,817.167 711,829.5C 718.5,823.333 726,817.167 733.5,811C 736.564,808.793 738.564,805.959 739.5,802.5C 739.5,800.833 739.5,799.167 739.5,797.5C 740.638,800.304 740.805,803.304 740,806.5C 730.833,814.333 721.667,822.167 712.5,830C 711.552,830.483 710.552,830.649 709.5,830.5C 709.333,817.496 709.5,804.496 710,791.5C 711.697,788.98 713.53,786.647 715.5,784.5 Z"/></g>
<g><path style="opacity:1" fill="#a5a5a5" d="M 470.5,766.5 C 469.207,768.296 467.707,769.963 466,771.5C 465.5,812.165 465.333,852.832 465.5,893.5C 464.335,852.669 464.169,811.669 465,770.5C 466.451,768.536 468.284,767.203 470.5,766.5 Z"/></g>
<g><path style="opacity:1" fill="#676767" d="M 626.5,785.5 C 629.724,788.218 632.891,791.218 636,794.5C 636.833,810.51 636.666,826.51 635.5,842.5C 629.106,846.863 622.106,849.863 614.5,851.5C 620.614,847.941 626.947,844.608 633.5,841.5C 634.666,826.178 634.833,810.844 634,795.5C 631.283,792.29 628.783,788.956 626.5,785.5 Z"/></g>
<g><path style="opacity:1" fill="#a2a2a2" d="M 797.5,803.5 C 799.104,804.287 799.771,805.62 799.5,807.5C 798.326,806.486 797.66,805.153 797.5,803.5 Z"/></g>
<g><path style="opacity:1" fill="#616261" d="M 881.5,800.5 C 880.864,804.781 879.364,808.781 877,812.5C 875.989,813.337 874.822,813.67 873.5,813.5C 876.417,809.334 879.084,805.001 881.5,800.5 Z"/></g>
<g><path style="opacity:1" fill="#898989" d="M 822.5,800.5 C 821.633,803.908 820.467,807.242 819,810.5C 818.623,811.942 817.79,812.942 816.5,813.5C 817.716,808.738 819.716,804.405 822.5,800.5 Z"/></g>
<g><path style="opacity:1" fill="#8b8b8b" d="M 873.5,813.5 C 868.745,815.613 863.745,817.279 858.5,818.5C 857.508,818.672 856.842,818.338 856.5,817.5C 862.065,815.756 867.732,814.423 873.5,813.5 Z"/></g>
<g><path style="opacity:1" fill="#474747" d="M 856.5,817.5 C 856.842,818.338 857.508,818.672 858.5,818.5C 858.389,819.117 858.056,819.617 857.5,820C 854.854,820.497 852.187,820.664 849.5,820.5C 851.679,819.323 854.013,818.323 856.5,817.5 Z"/></g>
<g><path style="opacity:1" fill="#4a4a4a" d="M 849.5,820.5 C 845.616,823.802 841.282,824.802 836.5,823.5C 840.786,822.293 845.12,821.293 849.5,820.5 Z"/></g>
<g><path style="opacity:1" fill="#6a6a6a" d="M 789.5,867.5 C 788.624,867.631 787.957,867.298 787.5,866.5C 780.468,851.772 773.468,837.105 766.5,822.5C 763.544,825.958 760.377,829.292 757,832.5C 756.51,833.793 756.343,835.127 756.5,836.5C 754.235,835.06 754.068,833.393 756,831.5C 759.396,828.607 762.229,825.274 764.5,821.5C 765.833,820.167 767.167,820.167 768.5,821.5C 775.512,836.855 782.512,852.188 789.5,867.5 Z"/></g>
<g><path style="opacity:1" fill="#7a7a7a" d="M 742.5,825.5 C 741.833,826.833 740.833,827.833 739.5,828.5C 739.062,828.565 738.728,828.399 738.5,828C 739.471,826.519 740.804,825.685 742.5,825.5 Z"/></g>
<g><path style="opacity:1" fill="#626262" d="M 895.5,809.5 C 892.439,817.288 889.106,824.955 885.5,832.5C 884.624,832.631 883.957,832.298 883.5,831.5C 886.561,824.379 889.894,817.379 893.5,810.5C 893.957,809.702 894.624,809.369 895.5,809.5 Z"/></g>
<g><path style="opacity:1" fill="#d2d2d2" d="M 734.5,832.5 C 733.738,834.262 732.404,835.262 730.5,835.5C 731.262,833.738 732.596,832.738 734.5,832.5 Z"/></g>
<g><path style="opacity:1" fill="#6c6c6c" d="M 813.5,820.5 C 811.456,828.25 808.123,835.25 803.5,841.5C 806.051,834.067 809.385,827.067 813.5,820.5 Z"/></g>
<g><path style="opacity:1" fill="#bababa" d="M 728.5,837.5 C 728.027,838.906 727.027,839.573 725.5,839.5C 725.973,838.094 726.973,837.427 728.5,837.5 Z"/></g>
<g><path style="opacity:1" fill="#707070" d="M 695.5,785.5 C 695.333,811.502 695.5,837.502 696,863.5C 696.816,862.177 697.983,861.511 699.5,861.5C 698.313,863.975 696.313,864.975 693.5,864.5C 693.333,838.498 693.5,812.498 694,786.5C 694.383,785.944 694.883,785.611 695.5,785.5 Z"/></g>
<g><path style="opacity:1" fill="#a1a1a1" d="M 757.5,838.5 C 759.293,840.426 760.293,842.759 760.5,845.5C 758.707,843.574 757.707,841.241 757.5,838.5 Z"/></g>
<g><path style="opacity:1" fill="#636463" d="M 884.5,833.5 C 880.01,844.477 875.01,855.144 869.5,865.5C 872.465,854.705 876.798,844.371 882.5,834.5C 882.957,833.702 883.624,833.369 884.5,833.5 Z"/></g>
<g><path style="opacity:1" fill="#b0b0b0" d="M 717.5,846.5 C 716.833,847.833 715.833,848.833 714.5,849.5C 714.062,849.565 713.728,849.399 713.5,849C 714.471,847.519 715.804,846.685 717.5,846.5 Z"/></g>
<g><path style="opacity:1" fill="#8e8e8e" d="M 610.5,853.5 C 610.167,854.5 609.5,855.167 608.5,855.5C 606.965,856.354 605.632,856.354 604.5,855.5C 606.421,854.637 608.421,853.971 610.5,853.5 Z"/></g>
<g><path style="opacity:1" fill="#a6a6a6" d="M 705.5,856.5 C 704.833,857.833 703.833,858.833 702.5,859.5C 702.062,859.565 701.728,859.399 701.5,859C 702.471,857.519 703.804,856.685 705.5,856.5 Z"/></g>
<g><path style="opacity:1" fill="#6e6e6e" d="M 799.5,850.5 C 798.144,856.875 795.477,862.542 791.5,867.5C 793.384,861.402 796.051,855.735 799.5,850.5 Z"/></g>
<g><path style="opacity:1" fill="#595959" d="M 522.5,801.5 C 521.513,820.424 521.18,839.424 521.5,858.5C 531.833,860.5 542.167,862.5 552.5,864.5C 552.134,865.695 551.301,866.361 550,866.5C 540.176,864.67 530.509,862.337 521,859.5C 520.833,849.833 520.667,840.167 520.5,830.5C 520.501,820.476 521.168,810.809 522.5,801.5 Z"/></g>
<g><path style="opacity:1" fill="#545454" d="M 604.5,855.5 C 605.632,856.354 606.965,856.354 608.5,855.5C 598.862,861.12 588.862,866.287 578.5,871C 571.389,871.047 564.389,870.047 557.5,868C 555.881,867.764 554.881,866.931 554.5,865.5C 561.588,866.318 568.588,867.651 575.5,869.5C 585.585,865.624 595.252,860.957 604.5,855.5 Z"/></g>
<g><path style="opacity:1" fill="#6f6f6f" d="M 869.5,865.5 C 867.623,870.925 865.456,876.259 863,881.5C 857.356,886.071 851.189,889.738 844.5,892.5C 849.767,888.856 855.101,885.189 860.5,881.5C 862.56,876.38 864.893,871.38 867.5,866.5C 867.957,865.702 868.624,865.369 869.5,865.5 Z"/></g>
<g><path style="opacity:1" fill="#727373" d="M 763.5,851.5 C 766.778,857.887 770.444,864.053 774.5,870C 773.862,871.707 773.862,873.54 774.5,875.5C 770.317,867.797 766.65,859.797 763.5,851.5 Z"/></g>
<g><path style="opacity:1" fill="#959694" d="M 679.5,870.5 C 675.419,873.874 670.753,876.207 665.5,877.5C 669.891,874.638 674.558,872.304 679.5,870.5 Z"/></g>
<g><path style="opacity:1" fill="#bbbbbb" d="M 653.5,883.5 C 648.753,887.207 643.419,889.874 637.5,891.5C 637.5,891.167 637.5,890.833 637.5,890.5C 642.833,888.167 648.167,885.833 653.5,883.5 Z"/></g>
<g><path style="opacity:1" fill="#4d4e4d" d="M 637.5,890.5 C 637.5,890.833 637.5,891.167 637.5,891.5C 634.485,893.674 631.151,895.341 627.5,896.5C 630.132,893.51 633.465,891.51 637.5,890.5 Z"/></g>
<g><path style="opacity:1" fill="#9a9a9a" d="M 776.5,879.5 C 779.955,884.746 782.622,890.413 784.5,896.5C 781.045,891.254 778.378,885.587 776.5,879.5 Z"/></g>
<g><path style="opacity:1" fill="#6f6f6f" d="M 465.5,893.5 C 468.152,893.41 470.485,894.076 472.5,895.5C 469.848,895.59 467.515,894.924 465.5,893.5 Z"/></g>
<g><path style="opacity:1" fill="#8f8f8d" d="M 476.5,896.5 C 480.8,896.719 484.8,897.719 488.5,899.5C 484.2,899.281 480.2,898.281 476.5,896.5 Z"/></g>
<g><path style="opacity:1" fill="#b4b4b4" d="M 784.5,897.5 C 785.906,897.973 786.573,898.973 786.5,900.5C 785.094,900.027 784.427,899.027 784.5,897.5 Z"/></g>
<g><path style="opacity:1" fill="#aca9a9" d="M 488.5,899.5 C 491.495,899.294 494.162,899.96 496.5,901.5C 493.505,901.706 490.838,901.04 488.5,899.5 Z"/></g>
<g><path style="opacity:1" fill="#b6b6b6" d="M 627.5,896.5 C 622.316,900.26 616.65,903.26 610.5,905.5C 615.684,901.74 621.35,898.74 627.5,896.5 Z"/></g>
<g><path style="opacity:1" fill="#acaca7" d="M 496.5,901.5 C 501.12,901.74 505.453,902.74 509.5,904.5C 504.88,904.26 500.547,903.26 496.5,901.5 Z"/></g>
<g><path style="opacity:1" fill="#959895" d="M 842.5,893.5 C 836.71,898.236 830.376,902.236 823.5,905.5C 828.916,900.279 835.249,896.279 842.5,893.5 Z"/></g>
<g><path style="opacity:1" fill="#6a6a69" d="M 514.5,905.5 C 517.228,905.171 519.562,905.837 521.5,907.5C 518.933,907.279 516.599,906.612 514.5,905.5 Z"/></g>
<g><path style="opacity:1" fill="#545453" d="M 605.5,907.5 C 604.035,908.737 602.368,909.737 600.5,910.5C 600.5,909.5 600.5,908.5 600.5,907.5C 602.167,907.5 603.833,907.5 605.5,907.5 Z"/></g>
<g><path style="opacity:1" fill="#7e7e7e" d="M 526.5,908.5 C 529.428,908.565 532.095,909.232 534.5,910.5C 531.505,910.706 528.838,910.04 526.5,908.5 Z"/></g>
<g><path style="opacity:1" fill="#9c9b98" d="M 817.5,908.5 C 812.539,912.32 807.206,915.653 801.5,918.5C 806.087,914.194 811.421,910.861 817.5,908.5 Z"/></g>
<g><path style="opacity:1" fill="#8c8c8c" d="M 534.5,910.5 C 537.495,910.294 540.162,910.96 542.5,912.5C 539.572,912.435 536.905,911.768 534.5,910.5 Z"/></g>
<g><path style="opacity:1" fill="#a5a5a4" d="M 788.5,905.5 C 791.012,909.51 793.345,913.843 795.5,918.5C 796.325,919.386 797.325,919.719 798.5,919.5C 797.292,920.782 795.958,920.782 794.5,919.5C 791.934,915.039 789.934,910.373 788.5,905.5 Z"/></g>
<g><path style="opacity:1" fill="#a9a9a7" d="M 546.5,913.5 C 549.495,913.294 552.162,913.96 554.5,915.5C 551.572,915.435 548.905,914.768 546.5,913.5 Z"/></g>
<g><path style="opacity:1" fill="#b2b2b2" d="M 599.5,910.5 C 595.419,913.874 590.753,916.207 585.5,917.5C 586.167,916.833 586.833,916.167 587.5,915.5C 591.466,913.842 595.466,912.175 599.5,910.5 Z"/></g>
<g><path style="opacity:1" fill="#b9b8b3" d="M 554.5,915.5 C 557.781,915.42 560.781,916.087 563.5,917.5C 560.219,917.58 557.219,916.913 554.5,915.5 Z"/></g>
<g><path style="opacity:1" fill="#444444" d="M 587.5,915.5 C 586.833,916.167 586.167,916.833 585.5,917.5C 580.058,921.116 574.392,921.45 568.5,918.5C 573.214,918.827 577.88,918.493 582.5,917.5C 583.85,916.05 585.516,915.383 587.5,915.5 Z"/></g>
</svg>
